<svg xmlns="http://www.w3.org/2000/svg" viewBox="0 0 1200 750" role="img" aria-labelledby="title desc">
  <title id="title">文案策划作品集封面</title>
  <desc id="desc">带有文稿、色块和项目卡片的作品集视觉占位图</desc>
  <rect width="1200" height="750" fill="#f7f1e6"/>
  <rect x="74" y="72" width="1052" height="606" rx="22" fill="#fffdf8" stroke="#d8d1c3" stroke-width="3"/>
  <rect x="126" y="126" width="390" height="44" rx="8" fill="#1f6f5f"/>
  <rect x="126" y="198" width="522" height="18" rx="9" fill="#b7b0a4"/>
  <rect x="126" y="236" width="460" height="18" rx="9" fill="#d5cec0"/>
  <rect x="126" y="274" width="508" height="18" rx="9" fill="#d5cec0"/>
  <rect x="126" y="350" width="330" height="190" rx="14" fill="#315f8a"/>
  <rect x="486" y="350" width="260" height="190" rx="14" fill="#b85c38"/>
  <rect x="776" y="350" width="298" height="190" rx="14" fill="#1f6f5f"/>
  <rect x="166" y="394" width="180" height="16" rx="8" fill="#f7f1e6"/>
  <rect x="166" y="432" width="230" height="14" rx="7" fill="#d7e4dc"/>
  <rect x="166" y="462" width="190" height="14" rx="7" fill="#d7e4dc"/>
  <rect x="526" y="394" width="112" height="16" rx="8" fill="#f7f1e6"/>
  <rect x="526" y="432" width="160" height="14" rx="7" fill="#f2cbb8"/>
  <rect x="526" y="462" width="130" height="14" rx="7" fill="#f2cbb8"/>
  <rect x="816" y="394" width="156" height="16" rx="8" fill="#f7f1e6"/>
  <rect x="816" y="432" width="196" height="14" rx="7" fill="#d7e4dc"/>
  <rect x="816" y="462" width="150" height="14" rx="7" fill="#d7e4dc"/>
  <circle cx="924" cy="190" r="82" fill="#f0d6c7"/>
  <path d="M876 190c30-62 66-62 96 0-30 62-66 62-96 0Z" fill="#b85c38"/>
  <circle cx="924" cy="190" r="20" fill="#fffdf8"/>
</svg>
